<mxfile host="app.diagrams.net" modified="2022-06-02T02:16:19.565Z" agent="5.0 (Windows NT 10.0; Win64; x64) AppleWebKit/537.36 (KHTML, like Gecko) Chrome/102.0.0.0 Safari/537.36" etag="oHBXIMeucpRvZWRLFqLZ" version="18.2.0" type="github">
  <diagram id="Hc7lsqqkSUxHhg8s1E7W" name="Page-1">
    <mxGraphModel dx="2249" dy="1894" grid="1" gridSize="10" guides="1" tooltips="1" connect="1" arrows="1" fold="1" page="1" pageScale="1" pageWidth="827" pageHeight="1169" math="0" shadow="0">
      <root>
        <mxCell id="0" />
        <mxCell id="1" parent="0" />
        <mxCell id="PIWaCqFdl9PoiGD2TJqh-59" style="edgeStyle=orthogonalEdgeStyle;rounded=0;orthogonalLoop=1;jettySize=auto;html=1;exitX=0.25;exitY=0;exitDx=0;exitDy=0;endArrow=oval;endFill=1;" parent="1" source="PIWaCqFdl9PoiGD2TJqh-56" edge="1">
          <mxGeometry relative="1" as="geometry">
            <mxPoint x="1270" y="300" as="targetPoint" />
          </mxGeometry>
        </mxCell>
        <mxCell id="PIWaCqFdl9PoiGD2TJqh-61" style="edgeStyle=orthogonalEdgeStyle;rounded=0;orthogonalLoop=1;jettySize=auto;html=1;exitX=0.25;exitY=0;exitDx=0;exitDy=0;endArrow=oval;endFill=0;" parent="1" source="PIWaCqFdl9PoiGD2TJqh-56" edge="1">
          <mxGeometry relative="1" as="geometry">
            <mxPoint x="1290" y="300" as="targetPoint" />
          </mxGeometry>
        </mxCell>
        <mxCell id="PIWaCqFdl9PoiGD2TJqh-63" style="edgeStyle=orthogonalEdgeStyle;rounded=0;orthogonalLoop=1;jettySize=auto;html=1;exitX=0.5;exitY=0;exitDx=0;exitDy=0;endArrow=oval;endFill=0;" parent="1" source="PIWaCqFdl9PoiGD2TJqh-56" edge="1">
          <mxGeometry relative="1" as="geometry">
            <mxPoint x="1320" y="300" as="targetPoint" />
          </mxGeometry>
        </mxCell>
        <mxCell id="PIWaCqFdl9PoiGD2TJqh-65" style="edgeStyle=orthogonalEdgeStyle;rounded=0;orthogonalLoop=1;jettySize=auto;html=1;exitX=0.75;exitY=0;exitDx=0;exitDy=0;endArrow=oval;endFill=0;" parent="1" source="PIWaCqFdl9PoiGD2TJqh-56" edge="1">
          <mxGeometry relative="1" as="geometry">
            <mxPoint x="1350" y="300" as="targetPoint" />
          </mxGeometry>
        </mxCell>
        <mxCell id="PIWaCqFdl9PoiGD2TJqh-68" value="" style="edgeStyle=orthogonalEdgeStyle;rounded=0;orthogonalLoop=1;jettySize=auto;html=1;endArrow=none;endFill=0;" parent="1" source="PIWaCqFdl9PoiGD2TJqh-56" target="PIWaCqFdl9PoiGD2TJqh-67" edge="1">
          <mxGeometry relative="1" as="geometry" />
        </mxCell>
        <mxCell id="OBphBxY2XZtndYQNY2jK-30" value="" style="edgeStyle=orthogonalEdgeStyle;rounded=0;orthogonalLoop=1;jettySize=auto;html=1;endArrow=none;endFill=0;" parent="1" source="PIWaCqFdl9PoiGD2TJqh-56" target="OBphBxY2XZtndYQNY2jK-29" edge="1">
          <mxGeometry relative="1" as="geometry">
            <Array as="points">
              <mxPoint x="1240" y="360" />
            </Array>
          </mxGeometry>
        </mxCell>
        <mxCell id="PIWaCqFdl9PoiGD2TJqh-56" value="CLIENTE" style="whiteSpace=wrap;html=1;rounded=0;" parent="1" vertex="1">
          <mxGeometry x="1260" y="330" width="120" height="60" as="geometry" />
        </mxCell>
        <mxCell id="PIWaCqFdl9PoiGD2TJqh-60" value="CPF" style="text;html=1;align=center;verticalAlign=middle;resizable=0;points=[];autosize=1;strokeColor=none;fillColor=none;rotation=-90;" parent="1" vertex="1">
          <mxGeometry x="1250" y="270" width="40" height="20" as="geometry" />
        </mxCell>
        <mxCell id="PIWaCqFdl9PoiGD2TJqh-62" value="E-MAIL" style="text;html=1;align=center;verticalAlign=middle;resizable=0;points=[];autosize=1;strokeColor=none;fillColor=none;rotation=-90;" parent="1" vertex="1">
          <mxGeometry x="1260" y="260" width="60" height="20" as="geometry" />
        </mxCell>
        <mxCell id="PIWaCqFdl9PoiGD2TJqh-64" value="NOME" style="text;html=1;align=center;verticalAlign=middle;resizable=0;points=[];autosize=1;strokeColor=none;fillColor=none;rotation=-90;" parent="1" vertex="1">
          <mxGeometry x="1295" y="260" width="50" height="20" as="geometry" />
        </mxCell>
        <mxCell id="PIWaCqFdl9PoiGD2TJqh-66" value="TELEFONE" style="text;html=1;align=center;verticalAlign=middle;resizable=0;points=[];autosize=1;strokeColor=none;fillColor=none;rotation=-90;" parent="1" vertex="1">
          <mxGeometry x="1310" y="250" width="80" height="20" as="geometry" />
        </mxCell>
        <mxCell id="PIWaCqFdl9PoiGD2TJqh-70" value="" style="edgeStyle=orthogonalEdgeStyle;rounded=0;orthogonalLoop=1;jettySize=auto;html=1;endArrow=none;endFill=0;" parent="1" source="PIWaCqFdl9PoiGD2TJqh-67" target="PIWaCqFdl9PoiGD2TJqh-69" edge="1">
          <mxGeometry relative="1" as="geometry" />
        </mxCell>
        <mxCell id="PIWaCqFdl9PoiGD2TJqh-67" value="MORA" style="rhombus;whiteSpace=wrap;html=1;rounded=0;" parent="1" vertex="1">
          <mxGeometry x="1480" y="320" width="80" height="80" as="geometry" />
        </mxCell>
        <mxCell id="PIWaCqFdl9PoiGD2TJqh-71" style="edgeStyle=orthogonalEdgeStyle;rounded=0;orthogonalLoop=1;jettySize=auto;html=1;exitX=0.25;exitY=0;exitDx=0;exitDy=0;endArrow=oval;endFill=1;" parent="1" source="PIWaCqFdl9PoiGD2TJqh-69" edge="1">
          <mxGeometry relative="1" as="geometry">
            <mxPoint x="1470" y="470" as="targetPoint" />
          </mxGeometry>
        </mxCell>
        <mxCell id="PIWaCqFdl9PoiGD2TJqh-73" style="edgeStyle=orthogonalEdgeStyle;rounded=0;orthogonalLoop=1;jettySize=auto;html=1;exitX=0.75;exitY=0;exitDx=0;exitDy=0;endArrow=oval;endFill=0;" parent="1" source="PIWaCqFdl9PoiGD2TJqh-69" edge="1">
          <mxGeometry relative="1" as="geometry">
            <mxPoint x="1540" y="470" as="targetPoint" />
          </mxGeometry>
        </mxCell>
        <mxCell id="PIWaCqFdl9PoiGD2TJqh-76" style="edgeStyle=orthogonalEdgeStyle;rounded=0;orthogonalLoop=1;jettySize=auto;html=1;exitX=0.75;exitY=0;exitDx=0;exitDy=0;endArrow=oval;endFill=0;" parent="1" source="PIWaCqFdl9PoiGD2TJqh-69" edge="1">
          <mxGeometry relative="1" as="geometry">
            <mxPoint x="1570" y="470" as="targetPoint" />
          </mxGeometry>
        </mxCell>
        <mxCell id="PIWaCqFdl9PoiGD2TJqh-69" value="BAIRRO" style="whiteSpace=wrap;html=1;rounded=0;" parent="1" vertex="1">
          <mxGeometry x="1460" y="490" width="120" height="60" as="geometry" />
        </mxCell>
        <mxCell id="PIWaCqFdl9PoiGD2TJqh-72" value="CEP" style="text;html=1;align=center;verticalAlign=middle;resizable=0;points=[];autosize=1;strokeColor=none;fillColor=none;rotation=-90;" parent="1" vertex="1">
          <mxGeometry x="1450" y="440" width="40" height="20" as="geometry" />
        </mxCell>
        <mxCell id="PIWaCqFdl9PoiGD2TJqh-75" value="RUA" style="text;html=1;align=center;verticalAlign=middle;resizable=0;points=[];autosize=1;strokeColor=none;fillColor=none;rotation=-90;" parent="1" vertex="1">
          <mxGeometry x="1520" y="440" width="40" height="20" as="geometry" />
        </mxCell>
        <mxCell id="PIWaCqFdl9PoiGD2TJqh-78" value="NOME" style="text;html=1;align=center;verticalAlign=middle;resizable=0;points=[];autosize=1;strokeColor=none;fillColor=none;rotation=-90;" parent="1" vertex="1">
          <mxGeometry x="1550" y="430" width="50" height="20" as="geometry" />
        </mxCell>
        <mxCell id="PIWaCqFdl9PoiGD2TJqh-79" value="1" style="text;html=1;align=center;verticalAlign=middle;resizable=0;points=[];autosize=1;strokeColor=none;fillColor=none;" parent="1" vertex="1">
          <mxGeometry x="1430" y="340" width="20" height="20" as="geometry" />
        </mxCell>
        <mxCell id="PIWaCqFdl9PoiGD2TJqh-80" value="N" style="text;html=1;align=center;verticalAlign=middle;resizable=0;points=[];autosize=1;strokeColor=none;fillColor=none;" parent="1" vertex="1">
          <mxGeometry x="1520" y="400" width="20" height="20" as="geometry" />
        </mxCell>
        <mxCell id="OBphBxY2XZtndYQNY2jK-12" style="edgeStyle=orthogonalEdgeStyle;rounded=0;orthogonalLoop=1;jettySize=auto;html=1;endArrow=none;endFill=0;" parent="1" source="PIWaCqFdl9PoiGD2TJqh-97" target="PIWaCqFdl9PoiGD2TJqh-113" edge="1">
          <mxGeometry relative="1" as="geometry">
            <Array as="points">
              <mxPoint x="831" y="580" />
              <mxPoint x="790" y="580" />
            </Array>
          </mxGeometry>
        </mxCell>
        <mxCell id="OBphBxY2XZtndYQNY2jK-41" value="" style="edgeStyle=orthogonalEdgeStyle;rounded=0;orthogonalLoop=1;jettySize=auto;html=1;endArrow=none;endFill=0;" parent="1" source="PIWaCqFdl9PoiGD2TJqh-97" target="OBphBxY2XZtndYQNY2jK-40" edge="1">
          <mxGeometry relative="1" as="geometry">
            <Array as="points">
              <mxPoint x="1055" y="455" />
            </Array>
          </mxGeometry>
        </mxCell>
        <mxCell id="OBphBxY2XZtndYQNY2jK-43" style="edgeStyle=orthogonalEdgeStyle;rounded=0;orthogonalLoop=1;jettySize=auto;html=1;exitX=0.75;exitY=0;exitDx=0;exitDy=0;endArrow=oval;endFill=0;" parent="1" source="PIWaCqFdl9PoiGD2TJqh-97" edge="1">
          <mxGeometry relative="1" as="geometry">
            <mxPoint x="861.1428571428573" y="400" as="targetPoint" />
          </mxGeometry>
        </mxCell>
        <mxCell id="OBphBxY2XZtndYQNY2jK-108" style="edgeStyle=orthogonalEdgeStyle;rounded=0;orthogonalLoop=1;jettySize=auto;html=1;exitX=0.25;exitY=0;exitDx=0;exitDy=0;fontSize=9;endArrow=oval;endFill=0;" parent="1" source="PIWaCqFdl9PoiGD2TJqh-97" edge="1">
          <mxGeometry relative="1" as="geometry">
            <mxPoint x="790" y="400" as="targetPoint" />
          </mxGeometry>
        </mxCell>
        <mxCell id="PIWaCqFdl9PoiGD2TJqh-97" value="VENDEDOR" style="whiteSpace=wrap;html=1;rounded=0;" parent="1" vertex="1">
          <mxGeometry x="771" y="420" width="120" height="60" as="geometry" />
        </mxCell>
        <mxCell id="PIWaCqFdl9PoiGD2TJqh-106" style="edgeStyle=orthogonalEdgeStyle;rounded=0;orthogonalLoop=1;jettySize=auto;html=1;exitX=0.75;exitY=0;exitDx=0;exitDy=0;endArrow=oval;endFill=0;" parent="1" source="PIWaCqFdl9PoiGD2TJqh-107" edge="1">
          <mxGeometry relative="1" as="geometry">
            <mxPoint x="640" y="400" as="targetPoint" />
          </mxGeometry>
        </mxCell>
        <mxCell id="PIWaCqFdl9PoiGD2TJqh-111" style="edgeStyle=orthogonalEdgeStyle;rounded=0;orthogonalLoop=1;jettySize=auto;html=1;exitX=0.25;exitY=0;exitDx=0;exitDy=0;endArrow=oval;endFill=0;" parent="1" source="PIWaCqFdl9PoiGD2TJqh-107" edge="1">
          <mxGeometry relative="1" as="geometry">
            <mxPoint x="590" y="400" as="targetPoint" />
          </mxGeometry>
        </mxCell>
        <mxCell id="OBphBxY2XZtndYQNY2jK-147" style="edgeStyle=orthogonalEdgeStyle;rounded=0;orthogonalLoop=1;jettySize=auto;html=1;fontSize=12;endArrow=none;endFill=0;entryX=0;entryY=0.75;entryDx=0;entryDy=0;" parent="1" source="PIWaCqFdl9PoiGD2TJqh-107" target="PIWaCqFdl9PoiGD2TJqh-113" edge="1">
          <mxGeometry relative="1" as="geometry">
            <mxPoint x="770" y="629.9999999999995" as="targetPoint" />
            <Array as="points">
              <mxPoint x="620" y="580" />
              <mxPoint x="770" y="580" />
            </Array>
          </mxGeometry>
        </mxCell>
        <mxCell id="OBphBxY2XZtndYQNY2jK-148" style="edgeStyle=orthogonalEdgeStyle;rounded=0;orthogonalLoop=1;jettySize=auto;html=1;fontSize=12;endArrow=none;endFill=0;" parent="1" source="PIWaCqFdl9PoiGD2TJqh-107" target="OBphBxY2XZtndYQNY2jK-149" edge="1">
          <mxGeometry relative="1" as="geometry">
            <mxPoint x="730" y="300" as="targetPoint" />
          </mxGeometry>
        </mxCell>
        <mxCell id="PIWaCqFdl9PoiGD2TJqh-107" value="CAIXA" style="whiteSpace=wrap;html=1;rounded=0;" parent="1" vertex="1">
          <mxGeometry x="560" y="420" width="120" height="60" as="geometry" />
        </mxCell>
        <mxCell id="OBphBxY2XZtndYQNY2jK-9" value="" style="edgeStyle=orthogonalEdgeStyle;rounded=0;orthogonalLoop=1;jettySize=auto;html=1;endArrow=none;endFill=0;" parent="1" source="PIWaCqFdl9PoiGD2TJqh-112" target="PIWaCqFdl9PoiGD2TJqh-107" edge="1">
          <mxGeometry relative="1" as="geometry" />
        </mxCell>
        <mxCell id="PIWaCqFdl9PoiGD2TJqh-112" value="CNH" style="text;html=1;align=center;verticalAlign=middle;resizable=0;points=[];autosize=1;strokeColor=none;fillColor=none;rotation=-90;" parent="1" vertex="1">
          <mxGeometry x="570" y="370" width="40" height="20" as="geometry" />
        </mxCell>
        <mxCell id="PIWaCqFdl9PoiGD2TJqh-120" value="" style="edgeStyle=orthogonalEdgeStyle;rounded=0;orthogonalLoop=1;jettySize=auto;html=1;endArrow=none;endFill=0;" parent="1" source="PIWaCqFdl9PoiGD2TJqh-113" target="PIWaCqFdl9PoiGD2TJqh-119" edge="1">
          <mxGeometry relative="1" as="geometry" />
        </mxCell>
        <mxCell id="PIWaCqFdl9PoiGD2TJqh-113" value="" style="triangle;whiteSpace=wrap;html=1;rotation=90;" parent="1" vertex="1">
          <mxGeometry x="760" y="630" width="60" height="80" as="geometry" />
        </mxCell>
        <mxCell id="PIWaCqFdl9PoiGD2TJqh-121" style="edgeStyle=orthogonalEdgeStyle;rounded=0;orthogonalLoop=1;jettySize=auto;html=1;exitX=0.25;exitY=0;exitDx=0;exitDy=0;endArrow=oval;endFill=1;" parent="1" source="PIWaCqFdl9PoiGD2TJqh-119" edge="1">
          <mxGeometry relative="1" as="geometry">
            <mxPoint x="740" y="770" as="targetPoint" />
          </mxGeometry>
        </mxCell>
        <mxCell id="PIWaCqFdl9PoiGD2TJqh-123" style="edgeStyle=orthogonalEdgeStyle;rounded=0;orthogonalLoop=1;jettySize=auto;html=1;exitX=0.25;exitY=0;exitDx=0;exitDy=0;endArrow=oval;endFill=0;" parent="1" source="PIWaCqFdl9PoiGD2TJqh-119" edge="1">
          <mxGeometry relative="1" as="geometry">
            <mxPoint x="759.666666666667" y="770" as="targetPoint" />
          </mxGeometry>
        </mxCell>
        <mxCell id="PIWaCqFdl9PoiGD2TJqh-125" style="edgeStyle=orthogonalEdgeStyle;rounded=0;orthogonalLoop=1;jettySize=auto;html=1;exitX=0.75;exitY=0;exitDx=0;exitDy=0;endArrow=oval;endFill=0;" parent="1" source="PIWaCqFdl9PoiGD2TJqh-119" edge="1">
          <mxGeometry relative="1" as="geometry">
            <mxPoint x="810" y="770" as="targetPoint" />
          </mxGeometry>
        </mxCell>
        <mxCell id="PIWaCqFdl9PoiGD2TJqh-119" value="FUNCIONARIO" style="whiteSpace=wrap;html=1;" parent="1" vertex="1">
          <mxGeometry x="730" y="790" width="120" height="60" as="geometry" />
        </mxCell>
        <mxCell id="PIWaCqFdl9PoiGD2TJqh-122" value="CPF_FUNC" style="text;html=1;align=center;verticalAlign=middle;resizable=0;points=[];autosize=1;strokeColor=none;fillColor=none;rotation=-90;" parent="1" vertex="1">
          <mxGeometry x="700" y="720" width="80" height="20" as="geometry" />
        </mxCell>
        <mxCell id="PIWaCqFdl9PoiGD2TJqh-124" value="NOME" style="text;html=1;align=center;verticalAlign=middle;resizable=0;points=[];autosize=1;strokeColor=none;fillColor=none;rotation=-90;" parent="1" vertex="1">
          <mxGeometry x="734" y="740" width="50" height="20" as="geometry" />
        </mxCell>
        <mxCell id="OBphBxY2XZtndYQNY2jK-33" value="" style="edgeStyle=orthogonalEdgeStyle;rounded=0;orthogonalLoop=1;jettySize=auto;html=1;endArrow=none;endFill=0;" parent="1" source="PIWaCqFdl9PoiGD2TJqh-174" target="OBphBxY2XZtndYQNY2jK-32" edge="1">
          <mxGeometry relative="1" as="geometry" />
        </mxCell>
        <mxCell id="PIWaCqFdl9PoiGD2TJqh-174" value="COMPRA" style="whiteSpace=wrap;html=1;" parent="1" vertex="1">
          <mxGeometry x="995" y="120" width="120" height="60" as="geometry" />
        </mxCell>
        <mxCell id="PIWaCqFdl9PoiGD2TJqh-176" style="edgeStyle=orthogonalEdgeStyle;rounded=0;orthogonalLoop=1;jettySize=auto;html=1;exitX=0.25;exitY=0;exitDx=0;exitDy=0;endArrow=oval;endFill=1;" parent="1" edge="1">
          <mxGeometry relative="1" as="geometry">
            <mxPoint x="1008" y="100" as="targetPoint" />
            <mxPoint x="1028" y="120" as="sourcePoint" />
          </mxGeometry>
        </mxCell>
        <mxCell id="PIWaCqFdl9PoiGD2TJqh-177" style="edgeStyle=orthogonalEdgeStyle;rounded=0;orthogonalLoop=1;jettySize=auto;html=1;exitX=0.25;exitY=0;exitDx=0;exitDy=0;endArrow=oval;endFill=0;" parent="1" edge="1">
          <mxGeometry relative="1" as="geometry">
            <mxPoint x="1027.666666666667" y="100" as="targetPoint" />
            <mxPoint x="1028" y="120" as="sourcePoint" />
          </mxGeometry>
        </mxCell>
        <mxCell id="PIWaCqFdl9PoiGD2TJqh-178" style="edgeStyle=orthogonalEdgeStyle;rounded=0;orthogonalLoop=1;jettySize=auto;html=1;exitX=0.75;exitY=0;exitDx=0;exitDy=0;endArrow=oval;endFill=0;" parent="1" edge="1">
          <mxGeometry relative="1" as="geometry">
            <mxPoint x="1078.0000000000002" y="100" as="targetPoint" />
            <mxPoint x="1088.0000000000002" y="120" as="sourcePoint" />
          </mxGeometry>
        </mxCell>
        <mxCell id="PIWaCqFdl9PoiGD2TJqh-179" value="ID_PEDIDO" style="text;html=1;align=center;verticalAlign=middle;resizable=0;points=[];autosize=1;strokeColor=none;fillColor=none;rotation=-90;" parent="1" vertex="1">
          <mxGeometry x="970" y="50" width="80" height="20" as="geometry" />
        </mxCell>
        <mxCell id="PIWaCqFdl9PoiGD2TJqh-180" value="PRODUTO&lt;br&gt;" style="text;html=1;align=center;verticalAlign=middle;resizable=0;points=[];autosize=1;strokeColor=none;fillColor=none;rotation=-90;" parent="1" vertex="1">
          <mxGeometry x="990" y="50" width="80" height="20" as="geometry" />
        </mxCell>
        <mxCell id="PIWaCqFdl9PoiGD2TJqh-181" value="QUANTIDADE&lt;br&gt;" style="text;html=1;align=center;verticalAlign=middle;resizable=0;points=[];autosize=1;strokeColor=none;fillColor=none;rotation=-90;" parent="1" vertex="1">
          <mxGeometry x="1035" y="40" width="90" height="20" as="geometry" />
        </mxCell>
        <mxCell id="PIWaCqFdl9PoiGD2TJqh-198" style="edgeStyle=orthogonalEdgeStyle;rounded=0;orthogonalLoop=1;jettySize=auto;html=1;exitX=0.75;exitY=0;exitDx=0;exitDy=0;endArrow=oval;endFill=0;" parent="1" source="PIWaCqFdl9PoiGD2TJqh-191" edge="1">
          <mxGeometry relative="1" as="geometry">
            <mxPoint x="135" y="100" as="targetPoint" />
          </mxGeometry>
        </mxCell>
        <mxCell id="OBphBxY2XZtndYQNY2jK-27" value="" style="edgeStyle=orthogonalEdgeStyle;rounded=0;orthogonalLoop=1;jettySize=auto;html=1;endArrow=none;endFill=0;" parent="1" source="PIWaCqFdl9PoiGD2TJqh-191" target="OBphBxY2XZtndYQNY2jK-26" edge="1">
          <mxGeometry relative="1" as="geometry" />
        </mxCell>
        <mxCell id="PIWaCqFdl9PoiGD2TJqh-191" value="FORNECEDO" style="whiteSpace=wrap;html=1;" parent="1" vertex="1">
          <mxGeometry x="28" y="120" width="120" height="60" as="geometry" />
        </mxCell>
        <mxCell id="PIWaCqFdl9PoiGD2TJqh-192" style="edgeStyle=orthogonalEdgeStyle;rounded=0;orthogonalLoop=1;jettySize=auto;html=1;exitX=0.25;exitY=0;exitDx=0;exitDy=0;endArrow=oval;endFill=1;" parent="1" edge="1">
          <mxGeometry relative="1" as="geometry">
            <mxPoint x="38" y="100" as="targetPoint" />
            <mxPoint x="58" y="120" as="sourcePoint" />
          </mxGeometry>
        </mxCell>
        <mxCell id="PIWaCqFdl9PoiGD2TJqh-193" style="edgeStyle=orthogonalEdgeStyle;rounded=0;orthogonalLoop=1;jettySize=auto;html=1;exitX=0.25;exitY=0;exitDx=0;exitDy=0;endArrow=oval;endFill=0;" parent="1" edge="1">
          <mxGeometry relative="1" as="geometry">
            <mxPoint x="57.66666666666697" y="100" as="targetPoint" />
            <mxPoint x="58" y="120" as="sourcePoint" />
          </mxGeometry>
        </mxCell>
        <mxCell id="PIWaCqFdl9PoiGD2TJqh-195" value="CNPJ" style="text;html=1;align=center;verticalAlign=middle;resizable=0;points=[];autosize=1;strokeColor=none;fillColor=none;rotation=-90;" parent="1" vertex="1">
          <mxGeometry x="5" y="70" width="50" height="20" as="geometry" />
        </mxCell>
        <mxCell id="PIWaCqFdl9PoiGD2TJqh-196" value="NOME_EMPRESA" style="text;html=1;align=center;verticalAlign=middle;resizable=0;points=[];autosize=1;strokeColor=none;fillColor=none;rotation=-90;" parent="1" vertex="1">
          <mxGeometry y="30" width="120" height="20" as="geometry" />
        </mxCell>
        <mxCell id="PIWaCqFdl9PoiGD2TJqh-199" value="E-MAIL" style="text;html=1;align=center;verticalAlign=middle;resizable=0;points=[];autosize=1;strokeColor=none;fillColor=none;rotation=-90;" parent="1" vertex="1">
          <mxGeometry x="105" y="60" width="60" height="20" as="geometry" />
        </mxCell>
        <mxCell id="PIWaCqFdl9PoiGD2TJqh-223" value="JOSÉ ALBERTO&amp;nbsp; NASCIMENTO DE PAULA" style="text;html=1;align=center;verticalAlign=middle;resizable=0;points=[];autosize=1;strokeColor=none;fillColor=none;" parent="1" vertex="1">
          <mxGeometry x="-580" y="180" width="250" height="20" as="geometry" />
        </mxCell>
        <mxCell id="PIWaCqFdl9PoiGD2TJqh-224" value="RA: 2213290" style="text;html=1;align=center;verticalAlign=middle;resizable=0;points=[];autosize=1;strokeColor=none;fillColor=none;" parent="1" vertex="1">
          <mxGeometry x="-580" y="210" width="90" height="20" as="geometry" />
        </mxCell>
        <mxCell id="OBphBxY2XZtndYQNY2jK-49" value="" style="edgeStyle=orthogonalEdgeStyle;rounded=0;orthogonalLoop=1;jettySize=auto;html=1;endArrow=none;endFill=0;" parent="1" source="OBphBxY2XZtndYQNY2jK-1" target="OBphBxY2XZtndYQNY2jK-48" edge="1">
          <mxGeometry relative="1" as="geometry" />
        </mxCell>
        <mxCell id="OBphBxY2XZtndYQNY2jK-94" style="edgeStyle=orthogonalEdgeStyle;rounded=0;orthogonalLoop=1;jettySize=auto;html=1;exitX=0.25;exitY=0;exitDx=0;exitDy=0;endArrow=oval;endFill=1;" parent="1" source="OBphBxY2XZtndYQNY2jK-1" edge="1">
          <mxGeometry relative="1" as="geometry">
            <mxPoint x="740" y="1050" as="targetPoint" />
          </mxGeometry>
        </mxCell>
        <mxCell id="OBphBxY2XZtndYQNY2jK-96" style="edgeStyle=orthogonalEdgeStyle;rounded=0;orthogonalLoop=1;jettySize=auto;html=1;exitX=0.25;exitY=0;exitDx=0;exitDy=0;endArrow=oval;endFill=0;" parent="1" source="OBphBxY2XZtndYQNY2jK-1" edge="1">
          <mxGeometry relative="1" as="geometry">
            <mxPoint x="770" y="1050" as="targetPoint" />
          </mxGeometry>
        </mxCell>
        <mxCell id="OBphBxY2XZtndYQNY2jK-99" style="edgeStyle=orthogonalEdgeStyle;rounded=0;orthogonalLoop=1;jettySize=auto;html=1;exitX=0.75;exitY=0;exitDx=0;exitDy=0;endArrow=oval;endFill=0;" parent="1" source="OBphBxY2XZtndYQNY2jK-1" edge="1">
          <mxGeometry relative="1" as="geometry">
            <mxPoint x="820" y="1050" as="targetPoint" />
          </mxGeometry>
        </mxCell>
        <mxCell id="OBphBxY2XZtndYQNY2jK-144" style="edgeStyle=orthogonalEdgeStyle;rounded=0;orthogonalLoop=1;jettySize=auto;html=1;exitX=1;exitY=0.5;exitDx=0;exitDy=0;entryX=0;entryY=0.5;entryDx=0;entryDy=0;fontSize=12;endArrow=none;endFill=0;" parent="1" source="OBphBxY2XZtndYQNY2jK-1" target="OBphBxY2XZtndYQNY2jK-143" edge="1">
          <mxGeometry relative="1" as="geometry" />
        </mxCell>
        <mxCell id="OBphBxY2XZtndYQNY2jK-1" value="TELEFONE" style="whiteSpace=wrap;html=1;" parent="1" vertex="1">
          <mxGeometry x="730" y="1070" width="120" height="60" as="geometry" />
        </mxCell>
        <mxCell id="OBphBxY2XZtndYQNY2jK-59" value="" style="edgeStyle=orthogonalEdgeStyle;rounded=0;orthogonalLoop=1;jettySize=auto;html=1;endArrow=none;endFill=0;" parent="1" source="OBphBxY2XZtndYQNY2jK-26" target="OBphBxY2XZtndYQNY2jK-55" edge="1">
          <mxGeometry relative="1" as="geometry" />
        </mxCell>
        <mxCell id="OBphBxY2XZtndYQNY2jK-26" value="FORNECE" style="rhombus;whiteSpace=wrap;html=1;" parent="1" vertex="1">
          <mxGeometry x="202" y="110" width="80" height="80" as="geometry" />
        </mxCell>
        <mxCell id="OBphBxY2XZtndYQNY2jK-31" style="edgeStyle=orthogonalEdgeStyle;rounded=0;orthogonalLoop=1;jettySize=auto;html=1;entryX=1;entryY=0.5;entryDx=0;entryDy=0;endArrow=none;endFill=0;" parent="1" source="OBphBxY2XZtndYQNY2jK-29" target="PIWaCqFdl9PoiGD2TJqh-174" edge="1">
          <mxGeometry relative="1" as="geometry">
            <Array as="points">
              <mxPoint x="1200" y="150" />
            </Array>
          </mxGeometry>
        </mxCell>
        <mxCell id="OBphBxY2XZtndYQNY2jK-29" value="FAZ" style="rhombus;whiteSpace=wrap;html=1;rounded=0;" parent="1" vertex="1">
          <mxGeometry x="1200" y="110" width="80" height="80" as="geometry" />
        </mxCell>
        <mxCell id="OBphBxY2XZtndYQNY2jK-32" value="TEM" style="rhombus;whiteSpace=wrap;html=1;" parent="1" vertex="1">
          <mxGeometry x="690" y="110" width="80" height="80" as="geometry" />
        </mxCell>
        <mxCell id="OBphBxY2XZtndYQNY2jK-146" style="edgeStyle=orthogonalEdgeStyle;rounded=0;orthogonalLoop=1;jettySize=auto;html=1;fontSize=12;endArrow=none;endFill=0;entryX=0;entryY=1;entryDx=0;entryDy=0;" parent="1" source="OBphBxY2XZtndYQNY2jK-40" target="PIWaCqFdl9PoiGD2TJqh-56" edge="1">
          <mxGeometry relative="1" as="geometry">
            <mxPoint x="1270" y="400" as="targetPoint" />
            <Array as="points">
              <mxPoint x="1280" y="450" />
              <mxPoint x="1280" y="390" />
            </Array>
          </mxGeometry>
        </mxCell>
        <mxCell id="OBphBxY2XZtndYQNY2jK-40" value="ATENDE" style="rhombus;whiteSpace=wrap;html=1;rounded=0;" parent="1" vertex="1">
          <mxGeometry x="1050" y="410" width="80" height="80" as="geometry" />
        </mxCell>
        <mxCell id="OBphBxY2XZtndYQNY2jK-51" style="edgeStyle=orthogonalEdgeStyle;rounded=0;orthogonalLoop=1;jettySize=auto;html=1;exitX=0.5;exitY=0;exitDx=0;exitDy=0;entryX=0.5;entryY=1;entryDx=0;entryDy=0;endArrow=none;endFill=0;" parent="1" source="OBphBxY2XZtndYQNY2jK-48" target="PIWaCqFdl9PoiGD2TJqh-119" edge="1">
          <mxGeometry relative="1" as="geometry" />
        </mxCell>
        <mxCell id="OBphBxY2XZtndYQNY2jK-52" style="edgeStyle=orthogonalEdgeStyle;rounded=0;orthogonalLoop=1;jettySize=auto;html=1;endArrow=none;endFill=0;exitX=0.5;exitY=0;exitDx=0;exitDy=0;" parent="1" source="OBphBxY2XZtndYQNY2jK-139" target="PIWaCqFdl9PoiGD2TJqh-191" edge="1">
          <mxGeometry relative="1" as="geometry">
            <mxPoint x="390" y="499.99999999999955" as="targetPoint" />
            <mxPoint x="88" y="940" as="sourcePoint" />
            <Array as="points">
              <mxPoint x="80" y="590" />
              <mxPoint x="80" y="590" />
            </Array>
          </mxGeometry>
        </mxCell>
        <mxCell id="OBphBxY2XZtndYQNY2jK-48" value="TEM" style="rhombus;whiteSpace=wrap;html=1;" parent="1" vertex="1">
          <mxGeometry x="750" y="890" width="80" height="80" as="geometry" />
        </mxCell>
        <mxCell id="OBphBxY2XZtndYQNY2jK-68" style="edgeStyle=orthogonalEdgeStyle;rounded=0;orthogonalLoop=1;jettySize=auto;html=1;exitX=0.25;exitY=0;exitDx=0;exitDy=0;endArrow=oval;endFill=1;" parent="1" source="OBphBxY2XZtndYQNY2jK-55" edge="1">
          <mxGeometry relative="1" as="geometry">
            <mxPoint x="370" y="100" as="targetPoint" />
          </mxGeometry>
        </mxCell>
        <mxCell id="OBphBxY2XZtndYQNY2jK-93" style="edgeStyle=orthogonalEdgeStyle;rounded=0;orthogonalLoop=1;jettySize=auto;html=1;entryX=0;entryY=0.5;entryDx=0;entryDy=0;endArrow=none;endFill=0;" parent="1" source="OBphBxY2XZtndYQNY2jK-55" target="OBphBxY2XZtndYQNY2jK-32" edge="1">
          <mxGeometry relative="1" as="geometry" />
        </mxCell>
        <mxCell id="OBphBxY2XZtndYQNY2jK-101" style="edgeStyle=orthogonalEdgeStyle;rounded=0;orthogonalLoop=1;jettySize=auto;html=1;endArrow=oval;endFill=0;" parent="1" source="OBphBxY2XZtndYQNY2jK-55" edge="1">
          <mxGeometry relative="1" as="geometry">
            <mxPoint x="405" y="100" as="targetPoint" />
          </mxGeometry>
        </mxCell>
        <mxCell id="OBphBxY2XZtndYQNY2jK-104" style="edgeStyle=orthogonalEdgeStyle;rounded=0;orthogonalLoop=1;jettySize=auto;html=1;exitX=0.75;exitY=0;exitDx=0;exitDy=0;endArrow=oval;endFill=0;" parent="1" source="OBphBxY2XZtndYQNY2jK-55" edge="1">
          <mxGeometry relative="1" as="geometry">
            <mxPoint x="440" y="100" as="targetPoint" />
          </mxGeometry>
        </mxCell>
        <mxCell id="OBphBxY2XZtndYQNY2jK-55" value="PRODUTO" style="whiteSpace=wrap;html=1;" parent="1" vertex="1">
          <mxGeometry x="345" y="120" width="120" height="60" as="geometry" />
        </mxCell>
        <mxCell id="OBphBxY2XZtndYQNY2jK-64" value="" style="edgeStyle=orthogonalEdgeStyle;rounded=0;orthogonalLoop=1;jettySize=auto;html=1;endArrow=none;endFill=0;startArrow=none;" parent="1" source="OBphBxY2XZtndYQNY2jK-130" target="OBphBxY2XZtndYQNY2jK-55" edge="1">
          <mxGeometry relative="1" as="geometry">
            <mxPoint x="405" y="330" as="sourcePoint" />
          </mxGeometry>
        </mxCell>
        <mxCell id="OBphBxY2XZtndYQNY2jK-69" value="CODIGO" style="text;html=1;align=center;verticalAlign=middle;resizable=0;points=[];autosize=1;strokeColor=none;fillColor=none;rotation=-90;" parent="1" vertex="1">
          <mxGeometry x="340" y="60" width="60" height="20" as="geometry" />
        </mxCell>
        <mxCell id="OBphBxY2XZtndYQNY2jK-95" value="ID" style="text;html=1;align=center;verticalAlign=middle;resizable=0;points=[];autosize=1;strokeColor=none;fillColor=none;rotation=-90;" parent="1" vertex="1">
          <mxGeometry x="725" y="1030" width="30" height="20" as="geometry" />
        </mxCell>
        <mxCell id="OBphBxY2XZtndYQNY2jK-98" value="NUMERO" style="text;html=1;align=center;verticalAlign=middle;resizable=0;points=[];autosize=1;strokeColor=none;fillColor=none;rotation=-90;" parent="1" vertex="1">
          <mxGeometry x="734" y="1010" width="70" height="20" as="geometry" />
        </mxCell>
        <mxCell id="OBphBxY2XZtndYQNY2jK-100" value="CODIGO_PAIS" style="text;html=1;align=center;verticalAlign=middle;resizable=0;points=[];autosize=1;strokeColor=none;fillColor=none;rotation=-90;" parent="1" vertex="1">
          <mxGeometry x="770" y="990" width="100" height="20" as="geometry" />
        </mxCell>
        <mxCell id="OBphBxY2XZtndYQNY2jK-103" value="MODELO" style="text;html=1;align=center;verticalAlign=middle;resizable=0;points=[];autosize=1;strokeColor=none;fillColor=none;rotation=-90;" parent="1" vertex="1">
          <mxGeometry x="370" y="60" width="70" height="20" as="geometry" />
        </mxCell>
        <mxCell id="OBphBxY2XZtndYQNY2jK-105" value="CATEGORIA" style="text;html=1;align=center;verticalAlign=middle;resizable=0;points=[];autosize=1;strokeColor=none;fillColor=none;rotation=-90;" parent="1" vertex="1">
          <mxGeometry x="400" y="50" width="90" height="20" as="geometry" />
        </mxCell>
        <mxCell id="OBphBxY2XZtndYQNY2jK-106" value="STATUS_ENTREGA" style="text;html=1;align=center;verticalAlign=middle;resizable=0;points=[];autosize=1;strokeColor=none;fillColor=none;rotation=-90;" parent="1" vertex="1">
          <mxGeometry x="578" y="330" width="130" height="20" as="geometry" />
        </mxCell>
        <mxCell id="OBphBxY2XZtndYQNY2jK-107" value="&lt;font style=&quot;font-size: 9px&quot;&gt;DATA_CONTRATACAO&lt;/font&gt;" style="text;html=1;align=center;verticalAlign=middle;resizable=0;points=[];autosize=1;strokeColor=none;fillColor=none;rotation=-90;" parent="1" vertex="1">
          <mxGeometry x="805" y="330" width="110" height="20" as="geometry" />
        </mxCell>
        <mxCell id="OBphBxY2XZtndYQNY2jK-109" value="&lt;font style=&quot;font-size: 12px&quot;&gt;CRACHA&lt;/font&gt;" style="text;html=1;align=center;verticalAlign=middle;resizable=0;points=[];autosize=1;strokeColor=none;fillColor=none;fontSize=9;rotation=-90;" parent="1" vertex="1">
          <mxGeometry x="760" y="350" width="70" height="20" as="geometry" />
        </mxCell>
        <mxCell id="OBphBxY2XZtndYQNY2jK-111" value="&lt;font style=&quot;font-size: 12px&quot;&gt;CARGO&lt;/font&gt;" style="text;html=1;align=center;verticalAlign=middle;resizable=0;points=[];autosize=1;strokeColor=none;fillColor=none;fontSize=9;rotation=-90;" parent="1" vertex="1">
          <mxGeometry x="781" y="730" width="60" height="20" as="geometry" />
        </mxCell>
        <UserObject label="" link="https://github.com/Joseal19/FACUL-UTFPR/tree/main/Banco-De-Dados-1/Modelo%20Entidade-Relacionamento" id="OBphBxY2XZtndYQNY2jK-113">
          <mxCell style="shape=image;html=1;verticalAlign=top;verticalLabelPosition=bottom;labelBackgroundColor=#ffffff;imageAspect=0;aspect=fixed;image=https://cdn4.iconfinder.com/data/icons/socialcones/508/Github-128.png;fontSize=12;" parent="1" vertex="1">
            <mxGeometry x="-580" y="76" width="74" height="74" as="geometry" />
          </mxCell>
        </UserObject>
        <mxCell id="OBphBxY2XZtndYQNY2jK-116" value="1" style="text;html=1;align=center;verticalAlign=middle;resizable=0;points=[];autosize=1;strokeColor=none;fillColor=none;fontSize=12;" parent="1" vertex="1">
          <mxGeometry x="794" y="860" width="20" height="20" as="geometry" />
        </mxCell>
        <mxCell id="OBphBxY2XZtndYQNY2jK-117" value="N" style="text;html=1;align=center;verticalAlign=middle;resizable=0;points=[];autosize=1;strokeColor=none;fillColor=none;fontSize=12;" parent="1" vertex="1">
          <mxGeometry x="790" y="980" width="20" height="20" as="geometry" />
        </mxCell>
        <mxCell id="OBphBxY2XZtndYQNY2jK-118" value="1" style="text;html=1;align=center;verticalAlign=middle;resizable=0;points=[];autosize=1;strokeColor=none;fillColor=none;fontSize=12;" parent="1" vertex="1">
          <mxGeometry x="85" y="870" width="20" height="20" as="geometry" />
        </mxCell>
        <mxCell id="OBphBxY2XZtndYQNY2jK-120" value="N" style="text;html=1;align=center;verticalAlign=middle;resizable=0;points=[];autosize=1;strokeColor=none;fillColor=none;fontSize=12;" parent="1" vertex="1">
          <mxGeometry x="160" y="150" width="20" height="20" as="geometry" />
        </mxCell>
        <mxCell id="OBphBxY2XZtndYQNY2jK-121" value="N" style="text;html=1;align=center;verticalAlign=middle;resizable=0;points=[];autosize=1;strokeColor=none;fillColor=none;fontSize=12;" parent="1" vertex="1">
          <mxGeometry x="290" y="150" width="20" height="20" as="geometry" />
        </mxCell>
        <mxCell id="OBphBxY2XZtndYQNY2jK-122" value="1" style="text;html=1;align=center;verticalAlign=middle;resizable=0;points=[];autosize=1;strokeColor=none;fillColor=none;fontSize=12;" parent="1" vertex="1">
          <mxGeometry x="910" y="430" width="20" height="20" as="geometry" />
        </mxCell>
        <mxCell id="OBphBxY2XZtndYQNY2jK-124" value="N" style="text;html=1;align=center;verticalAlign=middle;resizable=0;points=[];autosize=1;strokeColor=none;fillColor=none;fontSize=12;" parent="1" vertex="1">
          <mxGeometry x="589" y="320" width="20" height="20" as="geometry" />
        </mxCell>
        <mxCell id="OBphBxY2XZtndYQNY2jK-129" value="N" style="text;html=1;align=center;verticalAlign=middle;resizable=0;points=[];autosize=1;strokeColor=none;fillColor=none;fontSize=12;" parent="1" vertex="1">
          <mxGeometry x="400" y="220" width="20" height="20" as="geometry" />
        </mxCell>
        <mxCell id="OBphBxY2XZtndYQNY2jK-132" value="" style="edgeStyle=orthogonalEdgeStyle;rounded=0;orthogonalLoop=1;jettySize=auto;html=1;fontSize=12;endArrow=none;endFill=0;" parent="1" source="OBphBxY2XZtndYQNY2jK-130" target="OBphBxY2XZtndYQNY2jK-131" edge="1">
          <mxGeometry relative="1" as="geometry" />
        </mxCell>
        <mxCell id="OBphBxY2XZtndYQNY2jK-133" style="edgeStyle=orthogonalEdgeStyle;rounded=0;orthogonalLoop=1;jettySize=auto;html=1;exitX=0.25;exitY=0;exitDx=0;exitDy=0;fontSize=12;endArrow=oval;endFill=1;" parent="1" source="OBphBxY2XZtndYQNY2jK-131" edge="1">
          <mxGeometry relative="1" as="geometry">
            <mxPoint x="360" y="440" as="targetPoint" />
          </mxGeometry>
        </mxCell>
        <mxCell id="OBphBxY2XZtndYQNY2jK-135" style="edgeStyle=orthogonalEdgeStyle;rounded=0;orthogonalLoop=1;jettySize=auto;html=1;exitX=0.75;exitY=0;exitDx=0;exitDy=0;fontSize=12;endArrow=oval;endFill=0;" parent="1" source="OBphBxY2XZtndYQNY2jK-131" edge="1">
          <mxGeometry relative="1" as="geometry">
            <mxPoint x="435" y="450" as="targetPoint" />
          </mxGeometry>
        </mxCell>
        <mxCell id="OBphBxY2XZtndYQNY2jK-137" style="edgeStyle=orthogonalEdgeStyle;rounded=0;orthogonalLoop=1;jettySize=auto;html=1;exitX=0.25;exitY=0;exitDx=0;exitDy=0;fontSize=12;endArrow=oval;endFill=0;" parent="1" source="OBphBxY2XZtndYQNY2jK-131" edge="1">
          <mxGeometry relative="1" as="geometry">
            <mxPoint x="390" y="450" as="targetPoint" />
          </mxGeometry>
        </mxCell>
        <mxCell id="OBphBxY2XZtndYQNY2jK-131" value="ESTOQUE" style="whiteSpace=wrap;html=1;" parent="1" vertex="1">
          <mxGeometry x="345" y="470" width="120" height="60" as="geometry" />
        </mxCell>
        <mxCell id="OBphBxY2XZtndYQNY2jK-134" value="CODIGO" style="text;html=1;align=center;verticalAlign=middle;resizable=0;points=[];autosize=1;strokeColor=none;fillColor=none;fontSize=12;rotation=-90;" parent="1" vertex="1">
          <mxGeometry x="330" y="400" width="60" height="20" as="geometry" />
        </mxCell>
        <mxCell id="OBphBxY2XZtndYQNY2jK-136" value="DESCRIÇAO" style="text;html=1;align=center;verticalAlign=middle;resizable=0;points=[];autosize=1;strokeColor=none;fillColor=none;fontSize=12;rotation=-90;" parent="1" vertex="1">
          <mxGeometry x="390" y="400" width="90" height="20" as="geometry" />
        </mxCell>
        <mxCell id="OBphBxY2XZtndYQNY2jK-138" value="QUANTIDADE" style="text;html=1;align=center;verticalAlign=middle;resizable=0;points=[];autosize=1;strokeColor=none;fillColor=none;fontSize=12;rotation=-90;" parent="1" vertex="1">
          <mxGeometry x="345" y="390" width="90" height="20" as="geometry" />
        </mxCell>
        <mxCell id="OBphBxY2XZtndYQNY2jK-140" style="edgeStyle=orthogonalEdgeStyle;rounded=0;orthogonalLoop=1;jettySize=auto;html=1;exitX=1;exitY=0.5;exitDx=0;exitDy=0;entryX=0;entryY=0.5;entryDx=0;entryDy=0;fontSize=12;endArrow=none;endFill=0;" parent="1" source="OBphBxY2XZtndYQNY2jK-139" target="OBphBxY2XZtndYQNY2jK-1" edge="1">
          <mxGeometry relative="1" as="geometry" />
        </mxCell>
        <mxCell id="OBphBxY2XZtndYQNY2jK-139" value="TEM" style="rhombus;whiteSpace=wrap;html=1;" parent="1" vertex="1">
          <mxGeometry x="40" y="1060" width="80" height="80" as="geometry" />
        </mxCell>
        <mxCell id="OBphBxY2XZtndYQNY2jK-145" style="edgeStyle=orthogonalEdgeStyle;rounded=0;orthogonalLoop=1;jettySize=auto;html=1;fontSize=12;endArrow=none;endFill=0;" parent="1" source="OBphBxY2XZtndYQNY2jK-143" target="PIWaCqFdl9PoiGD2TJqh-56" edge="1">
          <mxGeometry relative="1" as="geometry" />
        </mxCell>
        <mxCell id="OBphBxY2XZtndYQNY2jK-143" value="TEM" style="rhombus;whiteSpace=wrap;html=1;" parent="1" vertex="1">
          <mxGeometry x="1280" y="1060" width="80" height="80" as="geometry" />
        </mxCell>
        <mxCell id="OBphBxY2XZtndYQNY2jK-150" style="edgeStyle=orthogonalEdgeStyle;rounded=0;orthogonalLoop=1;jettySize=auto;html=1;exitX=0.5;exitY=0;exitDx=0;exitDy=0;entryX=0.542;entryY=1.008;entryDx=0;entryDy=0;entryPerimeter=0;fontSize=12;endArrow=none;endFill=0;" parent="1" source="OBphBxY2XZtndYQNY2jK-149" target="PIWaCqFdl9PoiGD2TJqh-174" edge="1">
          <mxGeometry relative="1" as="geometry" />
        </mxCell>
        <mxCell id="OBphBxY2XZtndYQNY2jK-149" value="CONCLUI" style="rhombus;whiteSpace=wrap;html=1;fontSize=12;" parent="1" vertex="1">
          <mxGeometry x="690" y="260" width="80" height="80" as="geometry" />
        </mxCell>
        <mxCell id="OBphBxY2XZtndYQNY2jK-130" value="TEM" style="rhombus;whiteSpace=wrap;html=1;fontSize=12;" parent="1" vertex="1">
          <mxGeometry x="365" y="270" width="80" height="80" as="geometry" />
        </mxCell>
        <mxCell id="OBphBxY2XZtndYQNY2jK-154" value="" style="edgeStyle=orthogonalEdgeStyle;rounded=0;orthogonalLoop=1;jettySize=auto;html=1;endArrow=none;endFill=0;" parent="1" target="OBphBxY2XZtndYQNY2jK-130" edge="1">
          <mxGeometry relative="1" as="geometry">
            <mxPoint x="405" y="350" as="sourcePoint" />
            <mxPoint x="405" y="180" as="targetPoint" />
            <Array as="points">
              <mxPoint x="405" y="350" />
              <mxPoint x="405" y="350" />
            </Array>
          </mxGeometry>
        </mxCell>
        <mxCell id="OBphBxY2XZtndYQNY2jK-155" value="https://github.com/Joseal19/FACUL-UTFPR/tree/main/Banco-De-Dados-1" style="text;html=1;align=center;verticalAlign=middle;resizable=0;points=[];autosize=1;strokeColor=none;fillColor=none;fontSize=12;" parent="1" vertex="1">
          <mxGeometry x="-590" y="160" width="410" height="20" as="geometry" />
        </mxCell>
        <mxCell id="OBphBxY2XZtndYQNY2jK-156" value="1" style="text;html=1;align=center;verticalAlign=middle;resizable=0;points=[];autosize=1;strokeColor=none;fillColor=none;fontSize=12;" parent="1" vertex="1">
          <mxGeometry x="1240" y="220" width="20" height="20" as="geometry" />
        </mxCell>
        <mxCell id="OBphBxY2XZtndYQNY2jK-157" value="N" style="text;html=1;align=center;verticalAlign=middle;resizable=0;points=[];autosize=1;strokeColor=none;fillColor=none;fontSize=12;" parent="1" vertex="1">
          <mxGeometry x="1120" y="130" width="20" height="20" as="geometry" />
        </mxCell>
        <mxCell id="OBphBxY2XZtndYQNY2jK-159" value="1" style="text;html=1;align=center;verticalAlign=middle;resizable=0;points=[];autosize=1;strokeColor=none;fillColor=none;fontSize=12;" parent="1" vertex="1">
          <mxGeometry x="700" y="420" width="20" height="20" as="geometry" />
        </mxCell>
        <mxCell id="OBphBxY2XZtndYQNY2jK-160" value="N" style="text;html=1;align=center;verticalAlign=middle;resizable=0;points=[];autosize=1;strokeColor=none;fillColor=none;fontSize=12;" parent="1" vertex="1">
          <mxGeometry x="810" y="200" width="20" height="20" as="geometry" />
        </mxCell>
        <mxCell id="OBphBxY2XZtndYQNY2jK-161" value="N" style="text;html=1;align=center;verticalAlign=middle;resizable=0;points=[];autosize=1;strokeColor=none;fillColor=none;fontSize=12;" parent="1" vertex="1">
          <mxGeometry x="1170" y="430" width="20" height="20" as="geometry" />
        </mxCell>
        <mxCell id="OBphBxY2XZtndYQNY2jK-163" value="N" style="text;html=1;align=center;verticalAlign=middle;resizable=0;points=[];autosize=1;strokeColor=none;fillColor=none;fontSize=12;" parent="1" vertex="1">
          <mxGeometry x="200" y="1080" width="20" height="20" as="geometry" />
        </mxCell>
        <mxCell id="OBphBxY2XZtndYQNY2jK-164" value="N" style="text;html=1;align=center;verticalAlign=middle;resizable=0;points=[];autosize=1;strokeColor=none;fillColor=none;fontSize=12;" parent="1" vertex="1">
          <mxGeometry x="960" y="1080" width="20" height="20" as="geometry" />
        </mxCell>
        <mxCell id="OBphBxY2XZtndYQNY2jK-165" value="1" style="text;html=1;align=center;verticalAlign=middle;resizable=0;points=[];autosize=1;strokeColor=none;fillColor=none;fontSize=12;" parent="1" vertex="1">
          <mxGeometry x="1320" y="1000" width="20" height="20" as="geometry" />
        </mxCell>
        <mxCell id="OBphBxY2XZtndYQNY2jK-167" value="N" style="text;html=1;align=center;verticalAlign=middle;resizable=0;points=[];autosize=1;strokeColor=none;fillColor=none;fontSize=12;" parent="1" vertex="1">
          <mxGeometry x="410" y="350" width="20" height="20" as="geometry" />
        </mxCell>
        <mxCell id="OBphBxY2XZtndYQNY2jK-168" value="1" style="text;html=1;align=center;verticalAlign=middle;resizable=0;points=[];autosize=1;strokeColor=none;fillColor=none;fontSize=12;" parent="1" vertex="1">
          <mxGeometry x="910" y="130" width="20" height="20" as="geometry" />
        </mxCell>
        <mxCell id="OBphBxY2XZtndYQNY2jK-169" value="N" style="text;html=1;align=center;verticalAlign=middle;resizable=0;points=[];autosize=1;strokeColor=none;fillColor=none;fontSize=12;" parent="1" vertex="1">
          <mxGeometry x="580" y="130" width="20" height="20" as="geometry" />
        </mxCell>
      </root>
    </mxGraphModel>
  </diagram>
</mxfile>
